HIERARCHY
ROOT root
{
	OFFSET	0	13.1	24.9
	CHANNELS 6  Xposition Yposition Zposition Xrotation Yrotation Zrotation
	JOINT spine_1
	{
		OFFSET	0	9.99999	0
		CHANNELS 3  Xrotation Yrotation Zrotation
		JOINT spine_2
		{
			OFFSET	0	112	-10
			CHANNELS 3  Xrotation Yrotation Zrotation
			JOINT spine_3
			{
				OFFSET	0	206.5	19.3
				CHANNELS 3  Xrotation Yrotation Zrotation
				JOINT spine_4
				{
					OFFSET	0	110.4	14.6
					CHANNELS 3  Xrotation Yrotation Zrotation
					JOINT neck_1
					{
						OFFSET	0	71.8	-50.3
						CHANNELS 3  Xrotation Yrotation Zrotation
						JOINT neck_2
						{
							OFFSET	0	86.2	-25.8
							CHANNELS 3  Xrotation Yrotation Zrotation
							JOINT head_ee
							{
								OFFSET	0	179.8	-8.7
								CHANNELS 3  Xrotation Yrotation Zrotation
								End Site
								{
									OFFSET	1	0	0
								}
							}
						}
					}
					JOINT left_clavicle
					{
						OFFSET	-43.2	22.4	-70.8
						CHANNELS 3  Xrotation Yrotation Zrotation
						JOINT left_shoulder
						{
							OFFSET	-93.9	-5.79999	48.7
							CHANNELS 3  Xrotation Yrotation Zrotation
							JOINT left_elbow
							{
								OFFSET	-291.4	-30.8	15.2
								CHANNELS 3  Xrotation Yrotation Zrotation
								JOINT left_lowarm_twist
								{
									OFFSET	-110.7	-3.89999	13.6
									CHANNELS 3  Xrotation Yrotation Zrotation
									JOINT left_hand
									{
										OFFSET	-110.7	-3.89999	13.6
										CHANNELS 3  Xrotation Yrotation Zrotation
										JOINT left_ee
										{
											OFFSET	-80.8	-5.10001	12.1
											CHANNELS 3  Xrotation Yrotation Zrotation
											End Site
											{
												OFFSET	1	0	0
											}
										}
									}
								}
							}
						}
					}
					JOINT right_clavicle
					{
						OFFSET	43.2	22.4	-70.8
						CHANNELS 3  Xrotation Yrotation Zrotation
						JOINT right_shoulder
						{
							OFFSET	93.9	-5.79999	48.7
							CHANNELS 3  Xrotation Yrotation Zrotation
							JOINT right_elbow
							{
								OFFSET	291.4	-30.8	15.2
								CHANNELS 3  Xrotation Yrotation Zrotation
								JOINT right_lowarm_twist
								{
									OFFSET	110.7	-3.89999	13.6
									CHANNELS 3  Xrotation Yrotation Zrotation
									JOINT right_hand
									{
										OFFSET	110.7	-3.89999	13.6
										CHANNELS 3  Xrotation Yrotation Zrotation
										JOINT right_ee
										{
											OFFSET	80.8	-5.10001	12.1
											CHANNELS 3  Xrotation Yrotation Zrotation
											End Site
											{
												OFFSET	1	0	0
											}
										}
									}
								}
							}
						}
					}
				}
			}
		}
	}
	JOINT left_hip
	{
		OFFSET	-82.8	-127.5	0.300001
		CHANNELS 3  Xrotation Yrotation Zrotation
		JOINT left_knee
		{
			OFFSET	-28.2	-396.7	2.2
			CHANNELS 3  Xrotation Yrotation Zrotation
			JOINT left_ankle
			{
				OFFSET	-11.7	-411.3	35.4
				CHANNELS 3  Xrotation Yrotation Zrotation
				JOINT left_toes
				{
					OFFSET	0	-60	-88.6
					CHANNELS 3  Xrotation Yrotation Zrotation
					JOINT left_foot_ee
					{
						OFFSET	-22.5	-16.5	-42.2
						CHANNELS 3  Xrotation Yrotation Zrotation
						End Site
						{
							OFFSET	1	0	0
						}
					}
				}
			}
		}
	}
	JOINT right_hip
	{
		OFFSET	82.8	-127.5	0.300001
		CHANNELS 3  Xrotation Yrotation Zrotation
		JOINT right_knee
		{
			OFFSET	28.2	-396.7	2.2
			CHANNELS 3  Xrotation Yrotation Zrotation
			JOINT right_ankle
			{
				OFFSET	11.7	-411.3	35.4
				CHANNELS 3  Xrotation Yrotation Zrotation
				JOINT right_toes
				{
					OFFSET	0	-60	-88.6
					CHANNELS 3  Xrotation Yrotation Zrotation
					JOINT right_foot_ee
					{
						OFFSET	22.5	-16.5	-42.2
						CHANNELS 3  Xrotation Yrotation Zrotation
						End Site
						{
							OFFSET	1	0	0
						}
					}
				}
			}
		}
	}
}
MOTION
Frames: 9
Frame Time: 0.02
1813.23 728.897 -495.254 90.0 -81.7055 90.0 -3.10526 0.20208 0.311958 -3.10522 0.18182 0.324185 -3.10409 0.0902326 0.360572 -3.10424 0.146045 0.341796 -3.24567 0.271947 1.5472 -3.23832 -0.706246 1.6456 -0.0 0.0 -0.0 0.9015 1.71061 1.91276 -13.3087 -22.7305 70.2703 0.202116 -5.71769 0.0100933 -53.7147 -4.51305 4.86294 2.1772 6.79206 17.3018 -0.0 0.0 -0.0 -0.45832 -10.356 -0.439842 18.8028 26.9592 -78.5417 3.76681 61.7959 -2.25472 50.7563 1.02348 6.19326 0.377852 2.976 -1.2809 0.0 0.0 0.0 -0.307538 9.07869 -1.50828 -5.16752 0.178005 0.772817 22.7262 18.7766 -3.12989 -11.2139 0.0 0.0 -0.0 0.0 -0.0 -3.18752 33.4143 -3.79859 -1.21183 -0.0479976 -0.179775 41.7171 -19.7209 5.17743 -33.677 0.0 0.0 0.0 0.0 0.0 
1821.32 727.584 -498.172 96.7096 -81.4914 95.285 -3.10996 0.461097 0.699108 -3.10979 0.415678 0.727031 -3.10399 0.210026 0.810707 -3.10476 0.335422 0.767366 -3.24996 -0.480415 3.98513 -3.19231 -3.96811 4.06639 -0.0 0.0 -0.0 1.21981 2.18074 2.56119 -14.0461 -22.2245 68.1945 0.188596 -5.33749 0.00879089 -52.4935 -4.36672 4.80692 1.5961 6.4964 13.2501 -0.0 0.0 -0.0 0.0365829 -11.1159 -1.37697 18.3299 24.5793 -78.4716 3.74397 61.6508 -2.23462 52.343 1.1416 6.35861 0.380598 3.47649 -1.08899 0.0 0.0 0.0 -1.38118 9.29747 -0.196738 -4.99007 0.173053 0.746034 23.734 19.3887 -3.26097 -10.4687 0.0 0.0 -0.0 0.0 -0.0 -3.26736 33.4084 -3.35993 -4.25329 -0.151604 -0.634996 42.121 -19.4842 5.20739 -32.6067 0.0 0.0 0.0 0.0 0.0 
1828.63 730.759 -500.548 95.3234 -81.6644 93.7227 -3.14584 0.345944 0.790958 -3.14554 0.294914 0.811366 -3.14076 0.070779 0.860392 -3.14173 0.205769 0.838418 -5.41599 -0.47288 3.94709 -5.36483 -3.81545 3.92398 -0.0 0.0 -0.0 1.3987 2.41988 2.92078 -13.219 -22.7007 67.7237 0.196729 -5.56626 0.00956359 -52.2791 -4.34116 4.79676 1.0408 6.39257 9.50638 -0.0 0.0 -0.0 1.26269 -11.1834 -3.46335 18.2965 22.5452 -78.3584 3.4049 59.3231 -1.93948 51.92 1.10967 6.31485 0.187005 2.80176 -0.0717089 0.0 0.0 0.0 -1.49226 9.33892 0.265721 -4.62547 0.162617 0.691052 22.8789 20.1274 -3.16526 -10.4452 0.0 0.0 -0.0 0.0 -0.0 -3.24933 33.0639 -3.21604 -4.58726 -0.161503 -0.685295 42.2554 -19.3843 5.21676 -32.3797 0.0 0.0 0.0 0.0 0.0 
1831.06 736.394 -502.163 95.8402 -81.9759 94.2732 -3.08395 0.369605 0.774051 -3.08367 0.319603 0.795999 -3.07864 0.0995705 0.851963 -3.07958 0.232868 0.825548 -6.78466 -0.836518 4.11531 -6.73152 -4.53894 3.9597 -0.0 0.0 -0.0 1.70419 1.81537 3.44317 -11.6044 -23.5226 67.5047 0.192762 -5.45468 0.00918262 -51.6538 -4.26681 4.76659 0.6765 6.38088 7.09626 -0.0 0.0 -0.0 1.93203 -10.7901 -4.57102 18.4489 20.1085 -78.2457 3.03621 56.3695 -1.62723 51.2683 1.0611 6.24697 0.0444977 1.77229 0.450195 0.0 0.0 0.0 -1.57774 9.70433 0.764937 -4.14184 0.148236 0.618224 21.4793 22.1339 -3.01677 -10.8036 0.0 0.0 -0.0 0.0 -0.0 -3.35466 32.2519 -3.00663 -4.30158 -0.153054 -0.642266 40.9734 -19.8471 5.11389 -32.5333 0.0 0.0 0.0 0.0 0.0 
1830.69 736.613 -505.877 93.7638 -81.9268 92.0612 -3.09101 0.222993 0.844725 -3.09063 0.168791 0.857201 -3.0875 -0.0621678 0.871446 -3.08855 0.0762356 0.870328 -8.73299 -1.20276 4.7889 -8.66902 -5.58596 4.44679 -0.0 0.0 -0.0 1.82563 1.78693 3.67072 -9.77884 -24.2873 67.0031 0.180359 -5.10564 0.0080413 -51.0252 -4.1924 4.73545 0.170917 6.42816 3.79908 -0.0 0.0 -0.0 2.61386 -10.0069 -5.69194 18.9062 18.3962 -77.1571 2.65341 52.7274 -1.31525 50.8278 1.02871 6.20078 -0.0521587 1.8345 1.12475 0.0 0.0 0.0 -1.56444 9.92897 0.891228 -3.40487 0.125138 0.507481 20.3191 24.0067 -2.89495 -11.3209 0.0 0.0 -0.0 0.0 -0.0 -3.72657 31.9127 -2.00378 -4.4668 -0.157967 -0.667145 41.0056 -20.075 5.12224 -32.0329 0.0 0.0 0.0 0.0 0.0 
1835.58 738.681 -509.84 93.6344 -82.2972 92.1406 -2.96215 0.209854 0.741087 -2.96186 0.162272 0.752937 -2.95926 -0.0393631 0.769218 -2.96008 0.0826109 0.765781 -10.1836 -1.36522 4.5724 -10.132 -5.65048 4.11294 -0.0 0.0 -0.0 2.11904 2.09004 4.25083 -7.67423 -24.2213 66.9976 0.160744 -4.55285 0.00638994 -50.8134 -4.16741 4.72477 0.248685 5.36184 3.87425 -0.0 0.0 -0.0 3.5649 -8.20475 -7.27157 16.9495 14.0042 -74.3259 2.44771 50.4789 -1.154 49.6977 0.947251 6.08118 -0.232101 -0.748828 1.23152 0.0 0.0 0.0 -1.59231 10.4495 1.39759 -3.40385 0.125105 0.507328 20.5054 27.0406 -2.97104 -11.0462 0.0 0.0 -0.0 0.0 -0.0 -3.42546 32.3236 -2.42134 -4.65218 -0.163394 -0.695079 40.9604 -20.0157 5.11674 -31.3125 0.0 0.0 0.0 0.0 0.0 
1841.12 743.077 -513.573 93.61 -82.5322 92.1195 -2.93018 0.201474 0.739762 -2.92989 0.153994 0.751082 -2.92742 -0.0464483 0.765297 -2.92823 0.0749954 0.763029 -11.5997 -1.32647 5.27512 -11.5359 -5.94443 4.72612 -0.0 0.0 -0.0 2.39238 1.58268 4.72963 -6.1622 -25.3486 66.6516 0.169985 -4.81338 0.00714436 -50.3192 -4.10924 4.69949 -0.682066 6.70691 -1.64837 -0.0 0.0 -0.0 3.94854 -6.71089 -7.90419 18.6108 13.0472 -74.1019 1.71316 40.3162 -0.62894 50.7708 1.02454 6.19479 -0.167439 1.93879 1.94251 0.0 0.0 0.0 -1.59189 10.5307 1.47631 -3.31666 0.122278 0.494244 21.2157 28.4104 -3.09262 -12.0896 0.0 0.0 -0.0 0.0 -0.0 -2.95913 29.6523 -2.72067 -4.33281 -0.153988 -0.646968 40.2045 -20.6629 5.06335 -31.6364 0.0 0.0 0.0 0.0 0.0 
1844.58 743.929 -516.13 91.7455 -82.8314 90.6022 -2.85978 0.0845223 0.569273 -2.8596 0.0481273 0.573497 -2.85889 -0.101864 0.566427 -2.85934 -0.0111303 0.575405 -10.7312 -1.59918 4.81627 -10.6777 -6.21953 4.25924 -0.0 0.0 -0.0 2.4794 0.893073 4.84395 -4.09261 -26.0032 66.5713 0.227263 -6.42344 0.0127527 -50.227 -4.09841 4.69472 -0.850021 6.71126 -2.7415 -0.0 0.0 -0.0 3.94599 -6.41536 -7.88914 16.4194 13.11 -74.247 1.721 40.4451 -0.634015 50.473 1.00288 6.16341 0.0404619 1.90031 0.531375 0.0 0.0 0.0 -1.47749 10.757 1.34504 -3.3429 0.123131 0.498182 21.0679 26.5242 -3.03563 -12.1311 0.0 0.0 -0.0 0.0 -0.0 -2.92737 29.4372 -2.65337 -4.07268 -0.146129 -0.60782 40.7981 -20.3391 5.10985 -31.6588 0.0 0.0 0.0 0.0 0.0 
1847.82 745.661 -519.796 90.0 -83.0096 90.0 -2.83894 0.18879 0.521356 -2.83881 0.155233 0.532312 -2.83713 0.0124658 0.554344 -2.83754 0.0998563 0.545419 -11.5173 -1.22067 5.57259 -11.4438 -5.94485 5.04733 -0.0 0.0 -0.0 2.58954 -0.0720859 4.98392 -2.61725 -26.4818 66.3701 0.319129 -8.98357 0.0250701 -50.1135 -4.0851 4.68883 -0.926681 6.89645 -3.16003 -0.0 0.0 -0.0 3.88166 -6.89568 -7.78972 16.9133 12.1486 -73.9842 1.4217 35.1538 -0.450381 50.5221 1.00644 6.16859 -0.235745 1.95365 2.40735 0.0 0.0 0.0 -1.71035 11.1405 1.32967 -3.31207 0.122129 0.493556 20.9377 27.0068 -3.0276 -12.2483 0.0 0.0 -0.0 0.0 -0.0 -3.12383 29.2271 -2.40741 -4.36548 -0.154962 -0.651887 40.3633 -20.7965 5.08133 -31.3629 0.0 0.0 0.0 0.0 0.0 
